<svg aria-hidden="true" style="position:absolute;width:0;height:0;overflow:hidden" xmlns="http://www.w3.org/2000/svg"><defs><symbol id="icon-instagram" viewBox="0 0 32 32"><path fill="#afb1b8" style="fill:var(--color1, #afb1b8)" d="M31.968 9.408c-.074-1.701-.349-2.869-.742-3.882a7.839 7.839 0 0 0-1.85-2.837l-.001-.001A7.906 7.906 0 0 0 26.597.861l-.054-.018C25.524.449 24.362.176 22.661.101 20.949.019 20.405 0 16.059 0c-4.344 0-4.888.019-6.595.094-1.699.074-2.869.349-3.88.742a7.847 7.847 0 0 0-2.839 1.85l-.001.001A7.9 7.9 0 0 0 .919 5.465l-.018.054C.506 6.538.232 7.7.157 9.401c-.082 1.712-.101 2.256-.101 6.602 0 4.344.019 4.888.094 6.595.075 1.701.35 2.869.744 3.882a7.915 7.915 0 0 0 1.849 2.837l.001.001c.8.813 1.77 1.443 2.832 1.843 1.019.395 2.182.67 3.882.744 1.707.075 2.251.094 6.595.094 4.346 0 4.89-.019 6.595-.094 1.701-.074 2.869-.349 3.882-.742a8.237 8.237 0 0 0 4.664-4.628l.019-.055c.394-1.019.669-2.182.744-3.882.075-1.707.093-2.251.093-6.595s-.006-4.888-.08-6.595zm-2.88 13.066c-.07 1.563-.333 2.406-.55 2.97a5.341 5.341 0 0 1-3.004 3.024l-.036.012c-.56.219-1.411.482-2.968.55-1.688.075-2.194.094-6.464.094-4.269 0-4.782-.019-6.464-.094-1.563-.069-2.406-.331-2.97-.55a4.953 4.953 0 0 1-1.836-1.192l-.001-.001a4.978 4.978 0 0 1-1.184-1.803L3.6 25.45c-.218-.563-.48-1.413-.549-2.97-.075-1.688-.094-2.195-.094-6.464 0-4.27.019-4.784.094-6.464.069-1.563.331-2.406.549-2.97a4.897 4.897 0 0 1 1.198-1.837l.002-.002a4.972 4.972 0 0 1 1.806-1.182l.034-.011c.56-.219 1.411-.48 2.968-.55 1.688-.074 2.195-.093 6.464-.093 4.275 0 4.782.019 6.464.093 1.563.069 2.406.331 2.97.55a4.91 4.91 0 0 1 1.837 1.194c.531.52.938 1.144 1.195 1.84.218.56.48 1.411.549 2.968.075 1.688.094 2.194.094 6.464 0 4.269-.019 4.768-.094 6.458z"/><path fill="#afb1b8" style="fill:var(--color1, #afb1b8)" d="M16.059 7.782a8.223 8.223 0 0 0-8.219 8.221 8.223 8.223 0 0 0 16.442.008v-.009a8.223 8.223 0 0 0-8.221-8.221zm0 13.552a5.333 5.333 0 0 1 .001-10.666h.001a5.334 5.334 0 1 1 0 10.668zM26.525 7.458a1.92 1.92 0 0 1-3.84 0 1.92 1.92 0 0 1 3.84 0z"/></symbol><symbol id="icon-letterhover" viewBox="0 0 43 32"><path d="M38.667 0H4C1.795 0 0 1.795 0 4v24c0 2.205 1.795 4 4 4h34.667c2.205 0 4-1.795 4-4V4c0-2.205-1.795-4-4-4zm0 2.667c.181 0 .355.037.512.104L21.334 18.238 3.489 2.771c.151-.065.327-.104.512-.104h34.667zm0 26.666H4A1.333 1.333 0 0 1 2.667 28V5.587l17.792 15.421c.233.203.539.327.875.327s.642-.124.876-.328l-.002.001L40 5.587V28c0 .736-.597 1.333-1.333 1.333z"/></symbol><symbol id="icon-linkedin" viewBox="0 0 32 32"><path fill="#afb1b8" style="fill:var(--color1, #afb1b8)" d="M31.992 32H32V20.262c0-5.741-1.235-10.163-7.947-10.163-3.227 0-5.392 1.77-6.277 3.45h-.093v-2.914h-6.365v21.363h6.627V21.42c0-2.786.528-5.48 3.978-5.48 3.398 0 3.45 3.179 3.45 5.658V32h6.619zM.528 10.635h6.635V32H.528V10.635zM3.843 0A3.843 3.843 0 0 0 0 3.843c0 2.12 1.722 3.878 3.843 3.878 2.12 0 3.842-1.757 3.842-3.878S5.965.002 3.844 0z"/></symbol><symbol id="icon-phone" viewBox="0 0 20 32"><path  d="M17 0H3C1.346 0 0 1.346 0 3v26c0 1.654 1.346 3 3 3h14c1.654 0 3-1.346 3-3V3c0-1.654-1.346-3-3-3zM3 2h14a1 1 0 0 1 1 1v21H2V3a1 1 0 0 1 1-1zm14 28H3a1 1 0 0 1-1-1v-3h16v3a1 1 0 0 1-1 1z"/></symbol><symbol id="icon-sputnik-antena" viewBox="0 0 72 32"><path fill="#f5f4fa" style="fill:var(--color4, #f5f4fa)" d="M1.067 0h69.867c.589 0 1.067.478 1.067 1.067v29.867c0 .589-.478 1.067-1.067 1.067H1.067A1.067 1.067 0 0 1 0 30.934V1.067C0 .478.478 0 1.067 0z"/><path fill="#212121" style="fill:var(--color5, #212121)" d="m44.618 19.557-4.925-4.961.547-2.692c.141.055.291.084.442.085h.004a1.26 1.26 0 1 0-1.172-.837l-2.893.353-4.719-4.744a.309.309 0 0 0-.438-.002l-.882.877a.31.31 0 0 0 0 .44l.475.482a8.716 8.716 0 0 0 1.47 10.303.302.302 0 0 0 .085.057c-.02.105-.03.212-.03.319v3.609h-3.733a1.558 1.558 0 0 0-1.556 1.556v.622a.31.31 0 0 0 .311.311h14.311a.31.31 0 0 0 .311-.311v-.622a1.558 1.558 0 0 0-1.555-1.556h-3.733v-1.599a8.785 8.785 0 0 0 1.778.187 8.673 8.673 0 0 0 4.107-1.04l.477.48a.309.309 0 0 0 .438.002l.882-.877a.31.31 0 0 0 0-.44zm-4.371-9.254a.623.623 0 1 1 .439 1.063h-.002a.623.623 0 0 1-.436-1.063h-.001zm-.733 2.044-.349 1.718-.686-.69 1.035-1.029zm-.353-.526-1.12 1.113-.866-.871 1.986-.242zm1.508 11.646c.515 0 .933.418.933.933v.311H27.913V24.4c0-.515.418-.933.933-.933h11.822zm-4.355-1.245v.622h-3.111v-.622h3.111zm-3.112-.622v-2.364c0-.755.698-1.369 1.555-1.369s1.556.614 1.556 1.369V21.6h-3.111zm3.734-.989v-1.375c0-1.098-.977-1.991-2.178-1.991a2.217 2.217 0 0 0-1.914 1.042 8.09 8.09 0 0 1-1.329-9.268l10.851 10.913a8.068 8.068 0 0 1-5.43.679zm6.585-.399L31.238 7.857l.44-.439 4.629 4.655c.002 0 .003.004.006.006l7.65 7.695-.441.439z"/><path fill="#2196f3" style="fill:var(--color2, #2196f3)" d="M34.761 18.489h-.003a.934.934 0 0 0-.003 1.867h.003a.934.934 0 0 0 .003-1.867zm.217 1.154a.31.31 0 1 1-.438-.441.314.314 0 0 1 .218-.091.312.312 0 0 1 .218.532h.003z"/></symbol><symbol id="icon-time" viewBox="0 0 72 32"><path fill="#f5f4fa" style="fill:var(--color4, #f5f4fa)" d="M1.067 0h69.867c.589 0 1.067.478 1.067 1.067v29.867c0 .589-.478 1.067-1.067 1.067H1.067A1.067 1.067 0 0 1 0 30.934V1.067C0 .478.478 0 1.067 0z"/><path fill="#212121" style="fill:var(--color5, #212121)" d="M44.923 15.592c-.001-4.931-3.999-8.927-8.93-8.926a8.928 8.928 0 0 0-2.714 17.433.394.394 0 0 0 .309-.038.37.37 0 0 0 .165-.208l2.255-7.146a1.116 1.116 0 1 0-.49-2.12l-2.978-2.979a.372.372 0 0 0-.526.526l2.977 2.98a1.095 1.095 0 0 0 .313 1.347l-2.148 6.809A8.192 8.192 0 1 1 38.82 7.897a8.192 8.192 0 0 1 .502 15.169l-.232-1.093a.372.372 0 0 0-.612-.201L36.24 23.77a.372.372 0 0 0 .134.632l2.858.912a.373.373 0 0 0 .478-.431l-.228-1.073a8.9 8.9 0 0 0 5.442-8.219zm-8.928-.372a.373.373 0 1 1-.001.745.373.373 0 0 1 .001-.745zm1.226 8.671 1.274-1.136.352 1.657-1.626-.52z"/><path fill="#2196f3" style="fill:var(--color2, #2196f3)" d="M35.623 8.525v.744a.371.371 0 1 0 .744 0v-.744a.373.373 0 0 0-.744 0zM28.928 15.22a.372.372 0 1 0 0 .744h.744a.372.372 0 1 0 0-.744h-.744zM43.063 15.964a.372.372 0 1 0 0-.744h-.744a.373.373 0 0 0 0 .744h.744z"/></symbol><symbol id="icon-twitter" viewBox="0 0 36 32"><path fill="#afb1b8" style="fill:var(--color1, #afb1b8)" d="M35.556 4.976c-1.222.548-2.64.952-4.125 1.142l-.076.008a7.29 7.29 0 0 0 3.193-3.977l.015-.051a14.295 14.295 0 0 1-4.529 1.748l-.093.016a7.287 7.287 0 0 0-12.606 4.981v.004c0 .578.048 1.134.169 1.662-6.06-.295-11.422-3.2-15.024-7.623a7.253 7.253 0 0 0-1.003 3.681v.001a7.307 7.307 0 0 0 3.237 6.059 7.162 7.162 0 0 1-3.327-.915l.036.019v.08a7.325 7.325 0 0 0 5.792 7.152l.048.009a7.086 7.086 0 0 1-1.854.24h-.061.003c-.466 0-.937-.027-1.38-.124.944 2.887 3.623 5.01 6.811 5.077a14.55 14.55 0 0 1-9.025 3.111h-.013.001c-.597 0-1.17-.028-1.744-.101 3.141 2.051 6.986 3.271 11.116 3.271h.07-.004c13.413 0 20.747-11.111 20.747-20.743 0-.32-.011-.633-.027-.942a14.664 14.664 0 0 0 3.62-3.729l.033-.052z"/></symbol><symbol id="icon-astronaut" viewBox="0 0 72 32"><path fill="#f5f4fa" style="fill:var(--color4, #f5f4fa)" d="M1.067 0h69.867c.589 0 1.067.478 1.067 1.067v29.867c0 .589-.478 1.067-1.067 1.067H1.067A1.067 1.067 0 0 1 0 30.934V1.067C0 .478.478 0 1.067 0z"/><path fill="#2196f3" style="fill:var(--color2, #2196f3)" d="M45.318 9.306a.315.315 0 0 0-.251-.212l-1.114-.162-.499-1.01c-.105-.213-.453-.213-.558 0l-.499 1.01-1.115.162a.311.311 0 0 0-.172.531l.807.786-.19 1.11a.311.311 0 0 0 .451.328l.997-.524.997.524a.311.311 0 0 0 .451-.327l-.19-1.11.807-.786a.312.312 0 0 0 .079-.319zm-1.436.774a.31.31 0 0 0-.089.275l.111.65-.583-.307a.308.308 0 0 0-.29 0l-.583.307.111-.65a.309.309 0 0 0-.089-.275l-.473-.46.653-.095a.31.31 0 0 0 .234-.17l.292-.591.292.591a.31.31 0 0 0 .234.17l.653.095-.472.46zM41.911 18.638h-.622v.622h.622v-.622zM41.911 19.882h-.622v.622h.622v-.622zM42.533 19.26h-.622v.622h.622v-.622zM41.289 19.26h-.622v.622h.622v-.622zM39.733 22.06h-.622v.622h.622v-.622zM39.733 23.305h-.622v.622h.622v-.622zM40.356 22.682h-.622v.622h.622v-.622zM39.111 22.682h-.622v.622h.622v-.622zM36 20.816h-.622v.622H36v-.622zM36 22.06h-.622v.622H36v-.622zM36.622 21.438H36v.622h.622v-.622zM35.378 21.438h-.622v.622h.622v-.622zM30.089 10.238h-.622v.622h.622v-.622zM30.089 11.482h-.622v.622h.622v-.622zM30.711 10.86h-.622v.622h.622v-.622zM29.467 10.86h-.622v.622h.622v-.622z"/><path fill="#212121" style="fill:var(--color5, #212121)" d="M41.084 14.926a1.036 1.036 0 0 0-.693-.411 1.038 1.038 0 0 0-.782.205l-.73.56-1.107.827-.792-.316a4.046 4.046 0 0 0 2.4-3.687c0-2.23-1.822-4.044-4.061-4.044s-4.061 1.814-4.061 4.044c0 .808.242 1.56.653 2.192l-1.612-.014h-.003c-.005 0-.009.002-.014.003a.289.289 0 0 0-.091.018c-.007.003-.015.004-.022.008l-.011.004-1.886.931h-.001l-1.104.531a1.039 1.039 0 0 0 .545 1.927c.169 0 .336-.041.49-.123l.81-.431 1.321-.682.791-.005-3.174 3.159-.001.001-.781.778a.967.967 0 0 0 0 1.375.98.98 0 0 0 1.377 0l.767-.764 1.015-.758.525.523-1.027 1.023-.001.001-.781.778a.967.967 0 0 0 0 1.375.979.979 0 0 0 1.377 0l2.031-2.022.001-.001.589-.583-.002-.002c.004-.004.009-.005.013-.009l3.013-3.301 2.025.288a.312.312 0 0 0 .153-.019l.029-.014c.011-.006.023-.009.034-.016l1.874-1.244c.007-.005.011-.012.017-.017.007-.006.017-.008.024-.015l.742-.695c.386-.362.439-.954.124-1.378zm-13.175 2.107c-.101.054-.216.065-.326.03a.417.417 0 0 1-.124-.735l.766-.369.185.539.077.226-.579.308zm2.04-1.067-.903.467-.149-.436-.107-.313 1.182-.584-.023.866zm8.808-3.862c0 .536-.128 1.041-.349 1.493l-2.439-1.108a1.086 1.086 0 0 0-.46-.81l.854-2.835a3.429 3.429 0 0 1 2.394 3.26zm-6.876 0a3.434 3.434 0 0 1 3.873-3.392l-.835 2.773-.033-.003c-.602 0-1.093.488-1.093 1.089s.49 1.089 1.093 1.089c.405 0 .755-.224.944-.551l2.253 1.024a3.436 3.436 0 0 1-2.763 1.394 3.434 3.434 0 0 1-3.438-3.422zm3.474.467a.47.47 0 0 1-.94 0c0-.258.211-.467.47-.467s.47.209.47.467zm-7.25 8.764a.354.354 0 0 1-.498 0 .348.348 0 0 1 0-.493l.561-.559.497.494-.559.557zm1.874 2.178a.354.354 0 0 1-.602-.247c0-.093.036-.18.103-.246l.562-.559.497.494-.56.557zm2.031-2.023-.001.001-1.03 1.027-.497-.494L31.511 21l.001-.001a.292.292 0 0 0 .052-.079c.004-.008.012-.015.015-.023.01-.024.011-.05.015-.075.002-.014.008-.028.008-.042 0-.021-.007-.041-.012-.062-.004-.019-.004-.038-.011-.056a.318.318 0 0 0-.053-.08c-.006-.007-.008-.016-.015-.022h-.001l-.001-.001-.937-.933c-.01-.01-.023-.014-.034-.022-.017-.013-.032-.025-.051-.034s-.036-.014-.055-.019a.304.304 0 0 0-.06-.012c-.019-.001-.037.001-.055.003a.254.254 0 0 0-.116.038c-.012.007-.025.009-.035.017l-1.035.772-.525-.523 1.399-1.392 2.543 2.502-.541.536zm3.978-4.093c-.009-.001-.017.002-.026.002a.302.302 0 0 0-.174.043.343.343 0 0 0-.049.036c-.007.006-.017.01-.023.017l-2.741 3.002-2.525-2.483 1.653-1.644a.311.311 0 0 0-.221-.531l-1.294.008.016-.938 1.811.016a4.052 4.052 0 0 0 3.652 1.153.27.27 0 0 0 .075.049l1.406.56.089.442.104.516-1.752-.249zm2.357.103-.182-.909.844-.63.552.733-1.214.806zm2.19-1.651-.489.458-.543-.721.485-.372a.425.425 0 0 1 .597.083.417.417 0 0 1-.05.553z"/><path fill="#212121" style="fill:var(--color5, #212121)" d="m34.601 17.484-1.25-1.244a.31.31 0 0 0-.439 0l-1.25 1.244a.315.315 0 0 0 0 .442l1.25 1.244a.307.307 0 0 0 .438 0l1.25-1.244a.312.312 0 0 0 0-.442zm-1.469 1.026-.809-.805.809-.805.809.805-.809.805zM36.679 9.625l-.15.604c.041.01 1.014.264 1.014 1.254h.622c0-1.177-.972-1.73-1.486-1.858zM38.165 12.104h-.622v.622h.622v-.622z"/></symbol><symbol id="icon-computer" viewBox="0 0 72 32"><path fill="#f5f4fa" style="fill:var(--color4, #f5f4fa)" d="M1.067 0h69.867c.589 0 1.067.478 1.067 1.067v29.867c0 .589-.478 1.067-1.067 1.067H1.067A1.067 1.067 0 0 1 0 30.934V1.067C0 .478.478 0 1.067 0z"/><path fill="#2196f3" style="fill:var(--color2, #2196f3)" d="M35.373 15.396h.622v2.799h-.622v-2.799zM37.861 16.64h.622v1.555h-.622V16.64zM32.886 17.573h.622v.622h-.622v-.622zM31.02 17.262h.622v.933h-.622v-.933z"/><path fill="#212121" style="fill:var(--color5, #212121)" d="M27.599 23.17h14.926a.933.933 0 0 0 .933-.933v-1.244a.933.933 0 0 0-.933-.933h-.311v-7.754l1.766-1.673a.938.938 0 1 0-.437-.445l-1.331 1.262v-.717a.933.933 0 0 0-.933-.933H28.841a.933.933 0 0 0-.933.933v9.328h-.311a.933.933 0 0 0-.933.933v1.244c0 .515.418.933.933.933zM44.391 9.488a.31.31 0 1 1 0 .621.31.31 0 0 1 0-.621zm-15.859 1.244a.31.31 0 0 1 .311-.311h12.438a.31.31 0 0 1 .311.311v1.306l-.622.591v-1.275a.31.31 0 0 0-.311-.311H29.465a.31.31 0 0 0-.311.311v7.774a.31.31 0 0 0 .311.311h11.194a.311.311 0 0 0 .311-.311v-5.643l.622-.589v7.165h-13.06v-9.328zm2.799 4.042a.933.933 0 1 0 .646 1.603l1.081.542a.31.31 0 0 0 .371-.072l2.298-2.585 2.259 1.692a.31.31 0 0 0 .4-.023l1.963-1.859v4.743H29.777v-7.152h10.572v1.552l-2.2 2.083-2.278-1.707a.311.311 0 0 0-.419.042l-2.329 2.621-.871-.435c.006-.037.01-.075.012-.113a.933.933 0 0 0-.933-.933zm.311.933a.31.31 0 1 1-.621 0 .31.31 0 0 1 .621 0zm1.865 4.975h3.11v.311a.31.31 0 0 1-.311.311h-2.488a.31.31 0 0 1-.311-.311v-.311zm-6.218.311a.31.31 0 0 1 .311-.311h5.286v.311c0 .515.418.933.933.933h2.488a.933.933 0 0 0 .933-.933v-.311h5.286a.31.31 0 0 1 .311.311v1.244a.31.31 0 0 1-.311.311H27.6a.31.31 0 0 1-.311-.311v-1.244z"/></symbol><symbol id="icon-facebook" viewBox="0 0 32 32"><path fill="#afb1b8" style="fill:var(--color1, #afb1b8)" d="M21.328 5.312h2.923V.224A36.478 36.478 0 0 0 20.144 0h-.157.008c-4.213 0-7.099 2.65-7.099 7.52V12H8.25v5.688h4.646V32h5.699V17.69h4.459l.709-5.688h-5.17V8.08c0-1.643.443-2.768 2.734-2.768z"/></symbol></defs></svg>